PathFileType	4	(X/Y/Z)	0_coords_data.trc
DataRate	CameraRate	NumFrames	NumMarkers	Units	OrigDataRate	OrigDataStartFrame	OrigNumFrames
30.0	30.0	4	21	m	30.0	1	48
Frame#	Time	THUMB_TIP	THUMB_IP	THUMB_MCP	THUMB_CMC	INDEX_TIP	INDEX_DIP	INDEX_PIP	INDEX_MCP	MIDDLE_TIP	MIDDLE_DIP	MIDDLE_PIP	MIDDLE_MCP	RING_TIP	RING_DIP	RING_PIP	RING_MCP	PINKY_TIP	PINKY_DIP	PINKY_PIP	PINKY_MCP	WRIST
X1	Y1	Z1	X2	Y2	Z2	X3	Y3	Z3	X4	Y4	Z4	X5	Y5	Z5	X6	Y6	Z6	X7	Y7	Z7	X8	Y8	Z8	X9	Y9	Z9	X10	Y10	Z10	X11	Y11	Z11	X12	Y12	Z12	X13	Y13	Z13	X14	Y14	Z14	X15	Y15	Z15	X16	Y16	Z16	X17	Y17	Z17	X18	Y18	Z18	X19	Y19	Z19	X20	Y20	Z20	X21	Y21	Z21
0	0.0	-0.02077669906616211	-0.13119200134277345	0.9920819702148438	-0.010798700332641601	-0.10458300018310547	0.99622900390625	-0.018024900436401366	-0.08098739624023438	1.0158099975585937	-0.01751300048828125	-0.042589698791503906	1.02602001953125	0.0022897000312805172	-0.10381800079345703	0.8888809814453125	-0.003749490022659301	-0.09497450256347656	0.9105390014648438	-0.01001609992980957	-0.0851156997680664	0.9332020263671875	-0.022649700164794923	-0.06845279693603516	0.9673519897460937	0.007172910213470459	-0.06270140075683593	0.8627760009765625	0.002837140083312988	-0.05882590103149414	0.8889910278320312	-0.005108419895172119	-0.05398059844970703	0.9182080078125	-0.020370399475097656	-0.0450635986328125	0.9561270141601562	0.008665459632873535	-0.02646179962158203	0.8596900024414063	0.003630480051040649	-0.024823099136352538	0.885551025390625	-0.004333640098571777	-0.023569599151611328	0.9138200073242188	-0.013884599685668946	-0.02197130012512207	0.9533469848632813	0.015029399871826173	0.019672500610351563	0.8871589965820312	0.0063249897956848145	0.015507200241088866	0.9067329711914063	-0.00255076003074646	0.010777199745178222	0.925676025390625	-0.010280099868774414	0.001222470045089721	0.9554420166015625	-0.04239759826660156	-0.009026670455932617	1.04206005859375
1	0.03333333333333333	-0.020743799209594727	-0.13141000366210936	0.9921240234375	-0.01049779987335205	-0.10479299926757812	0.9961939697265625	-0.01794849967956543	-0.08124089813232421	1.0157899780273438	-0.01761940002441406	-0.04278310012817383	1.0261099853515625	0.002228009939193725	-0.1040790023803711	0.8889140014648438	-0.003775350093841552	-0.09522480010986328	0.9105910034179687	-0.010025600433349609	-0.08543170166015625	0.9331710205078125	-0.022647199630737306	-0.06872319793701172	0.9672630004882813	0.007240509986877442	-0.06302740097045899	0.862676025390625	0.0029251399040222167	-0.05915219879150391	0.8890130004882812	-0.005041470050811767	-0.05442210006713867	0.91814501953125	-0.020308700561523438	-0.04539550018310547	0.955989013671875	0.008643139839172363	-0.026835100173950195	0.8597659912109376	0.003667220115661621	-0.02518549919128418	0.885531005859375	-0.0042543702125549315	-0.023870899200439454	0.9138489990234375	-0.013784299850463868	-0.022216800689697266	0.9533569946289062	0.014976599693298339	0.019325399398803712	0.8871090087890625	0.006305920124053955	0.01517899990081787	0.9067509765625	-0.002566890001296997	0.010483699798583984	0.9257410278320313	-0.010256799697875976	0.000995786011219024	0.955468994140625	-0.04232310104370117	-0.009146010398864746	1.0420799560546874
2	0.06666666666666667	-0.020566999435424806	-0.1316580047607422	0.9921420288085937	-0.010415499687194824	-0.10497000122070313	0.9962360229492188	-0.017960899353027342	-0.08140709686279297	1.0158800048828125	-0.017553199768066408	-0.04299069976806641	1.02606005859375	0.0021743800640106202	-0.10440499877929688	0.8889630126953125	-0.003830590009689331	-0.09555760192871093	0.9106199951171875	-0.010089200019836425	-0.08567420196533203	0.9331630249023437	-0.022718000411987304	-0.06903019714355468	0.9672620239257812	0.007351900100708008	-0.06340449905395508	0.8628359985351562	0.002908329963684082	-0.059526699066162106	0.8891170043945312	-0.005021659851074218	-0.05465810012817383	0.9182529907226562	-0.020440500259399415	-0.045631698608398434	0.9562440185546875	0.008721099853515626	-0.027287200927734376	0.8597650146484375	0.0036943800449371336	-0.025606800079345703	0.8855339965820312	-0.004287240028381348	-0.024254600524902345	0.9138670043945313	-0.01384179973602295	-0.022479700088500976	0.9534929809570313	0.014842700004577637	0.018826200485229493	0.8870670166015625	0.006183929920196533	0.014715800285339356	0.9066209716796875	-0.002634459972381592	0.010072199821472168	0.925635009765625	-0.01026010036468506	0.0006904050111770631	0.9554409790039062	-0.04233369827270508	-0.009393440246582032	1.04193994140625
3	0.1	-0.020289899826049805	-0.13185400390625	0.9919619750976563	-0.010342800140380859	-0.10515599822998047	0.9962340087890625	-0.017897899627685548	-0.08169629669189453	1.01577001953125	-0.017418399810791015	-0.043237098693847655	1.0259200439453124	0.002380929946899414	-0.10449400329589843	0.8889199829101563	-0.0037154700756072997	-0.09565290069580078	0.9105830078125	-0.009978859901428223	-0.08583650207519532	0.933155029296875	-0.022746999740600585	-0.06922010040283202	0.967385986328125	0.007479720115661621	-0.06365230178833008	0.8627369995117188	0.003022330045700073	-0.059713401794433595	0.8891179809570312	-0.005094029903411865	-0.054782001495361325	0.9184979858398438	-0.02034499931335449	-0.045914501190185544	0.95606201171875	0.008947210311889648	-0.027570600509643554	0.8598250122070312	0.00385329008102417	-0.025873699188232423	0.885552978515625	-0.004182650089263916	-0.02453529930114746	0.913781005859375	-0.013766900062561035	-0.02275629997253418	0.9532670288085937	0.014843299865722656	0.01840519905090332	0.8869979858398438	0.006161330223083496	0.014356900215148925	0.9065889892578125	-0.0026728498935699465	0.009778639793395997	0.9256259765625	-0.010261699676513672	0.000489490002393722	0.955427001953125	-0.04228630065917969	-0.009667099952697754	1.042
